# xmcd
#
# Track frame offsets: 
#        187
#        18897
#        40845
#        69512
#        92747
#        126545
#        155152
#        183825
#        212580
#
# Disc length: 3216 seconds
#
# Revision: 0
# Processed by: cddbd v1.5.2PL0 Copyright (c) Steve Scherf et al.
# Submitted via: ExactAudioCopy v1.3
#
DISCID=770c8e09
DTITLE=Bobby Brown - That's The Way Love Is (Promo CDM)
DYEAR=1993
DGENRE=R&B
TTITLE0=That's The Way Love Is (Single Version)
TTITLE1=That's The Way Love Is (LP Version)
TTITLE2=That's The Way Love Is (LP Version No Rap)
TTITLE3=That's The Way Love Is (Reworked Radio Edit)
TTITLE4=That's The Way Love Is (Reworked Extended Version)
TTITLE5=That's The Way Love Is (Instrumental)
TTITLE6=That's The Way Love Is (Suite)
TTITLE7=That's The Way Love Is (Acappella)
TTITLE8=That's The Way Love Is (Bonus Beats)
EXTD=
EXTT0=
EXTT1=
EXTT2=
EXTT3=
EXTT4=
EXTT5=
EXTT6=
EXTT7=
EXTT8=
PLAYORDER=
